<svg width="355" height="383" viewBox="0 0 355 383" fill="none" xmlns="http://www.w3.org/2000/svg">
<path d="M3.6314 117.741L51.5363 159.845L41.4955 101.074L93.3362 200.778L63.2581 110.79L90.204 145.237L80.4221 66.0923L132.082 212.665L113.223 80.5968L136.903 143.494L136.181 94.1271L152.74 129.77L167.237 156.19L175.954 66.0081L189.8 111.045L213.292 25.4545L174.626 333.826L166.49 337.408L3.6314 117.741Z" fill="#E6AC2D"/>
<path d="M350.93 108.536L303.025 150.64L313.066 91.8691L261.225 191.573L291.303 101.585L264.357 136.032L274.139 56.887L222.479 203.46L241.339 71.3915L217.659 134.289L218.38 84.9219L201.822 120.565L187.325 146.985L178.607 56.8029L164.761 101.84L141.269 16.2493L179.935 324.621L188.071 328.202L350.93 108.536Z" fill="#E6AC2D"/>
<path d="M106.258 111.177L129.612 149.555L131.489 111.177L149.422 185.589L143.375 122.896L155.052 151.02L159.848 100.338L171.317 203.167L177.781 117.915L183.62 162.445L189.875 132.27L195.088 158.344L200.301 178.265L217.817 125.825L220.111 156.879L245.968 111.177L180.7 288.126H175.279L106.258 111.177Z" fill="#E6432D"/>
<path d="M37.3321 208.223L71.2641 224.937L59.1474 190.432L101.292 242.125L73.6192 192.183L93.7841 208.265L79.7865 161.063L126.516 241.884L101.584 163.616L122.574 198L117.18 167.499L131.022 186.367L142.661 199.916L139.032 142.224L152.133 167.457L158.127 109.71L165.044 308.724L160.356 312.547L37.3321 208.223Z" fill="#E6432D"/>
<path d="M315.226 196.127L282.087 215.727L292.675 180.245L252.865 235.464L278.306 183.237L258.881 201.023L270.792 152.706L227.679 237.393L249.147 157.128L229.697 193.253L233.75 162.345L220.758 182.368L209.732 196.891L210.836 138.996L198.861 165.308L190.357 108.185L192.14 307.42L196.986 310.833L315.226 196.127Z" fill="#E6432D"/>
<path d="M176.601 197.391C187.934 183.231 202.1 181.208 187.934 197.391C173.768 213.574 185.101 243.917 185.101 243.917H173.768C173.768 243.917 165.269 211.551 176.601 197.391Z" fill="#FFF5E9"/>
<rect x="153.333" y="226.542" width="46.3333" height="52.125" rx="2" fill="#283143"/>
<circle cx="176.5" cy="313.417" r="69.5" fill="url(#paint0_radial_19_7)"/>
<defs>
<radialGradient id="paint0_radial_19_7" cx="0" cy="0" r="1" gradientUnits="userSpaceOnUse" gradientTransform="translate(176.5 313.417) rotate(90) scale(69.5)">
<stop stop-color="#626D82"/>
<stop offset="1" stop-color="#2D3647"/>
</radialGradient>
</defs>
</svg>
